<svg width="218" height="60" viewBox="0 0 218 60" fill="none" xmlns="http://www.w3.org/2000/svg">
<rect y="4.15405" width="5.53886" height="55.3886" rx="2.76943" fill="#34A853"/>
<rect x="22.1555" y="4.15405" width="5.53886" height="55.3886" rx="2.76943" fill="#34A853"/>
<rect x="44.3108" y="4.15405" width="5.53886" height="55.3886" rx="2.76943" fill="#34A853"/>
<rect x="11.0776" width="5.53886" height="55.3886" rx="2.76943" fill="#1E2772"/>
<rect x="33.2332" width="5.53886" height="55.3886" rx="2.76943" fill="#1E2772"/>
<path d="M57.8812 44.491C57.078 44.491 56.4549 44.2694 56.0118 43.8263C55.5964 43.3832 55.3887 42.7462 55.3887 41.9154V17.1982C55.3887 16.3397 55.5964 15.6889 56.0118 15.2458C56.4549 14.775 57.0226 14.5396 57.715 14.5396C58.352 14.5396 58.8228 14.6642 59.1274 14.9134C59.4597 15.135 59.8475 15.5227 60.2906 16.0766L76.201 36.7227H75.1209V17.0736C75.1209 16.2704 75.3286 15.6473 75.744 15.2042C76.1871 14.7611 76.8102 14.5396 77.6134 14.5396C78.4165 14.5396 79.0258 14.7611 79.4412 15.2042C79.8566 15.6473 80.0643 16.2704 80.0643 17.0736V41.9985C80.0643 42.7739 79.8704 43.3832 79.4827 43.8263C79.095 44.2694 78.5688 44.491 77.9042 44.491C77.2672 44.491 76.7548 44.3663 76.3671 44.1171C76.0071 43.8678 75.6055 43.4663 75.1624 42.9124L59.2936 22.2663H60.3321V41.9154C60.3321 42.7462 60.1244 43.3832 59.709 43.8263C59.2936 44.2694 58.6843 44.491 57.8812 44.491Z" fill="#1E2772"/>
<path d="M95.9766 44.574C93.678 44.574 91.6979 44.1448 90.0362 43.2863C88.3745 42.4277 87.0868 41.2092 86.1728 39.6306C85.2866 38.052 84.8435 36.1827 84.8435 34.0225C84.8435 31.9177 85.2728 30.0761 86.1313 28.4975C87.0175 26.9189 88.2222 25.6865 89.7454 24.8003C91.2963 23.8864 93.0549 23.4294 95.0212 23.4294C96.4613 23.4294 97.7491 23.6648 98.8845 24.1356C100.048 24.6064 101.031 25.2849 101.834 26.1712C102.665 27.0574 103.288 28.1375 103.703 29.4114C104.146 30.6576 104.368 32.0701 104.368 33.6486C104.368 34.1471 104.188 34.5348 103.828 34.8118C103.496 35.061 103.011 35.1857 102.374 35.1857H89.0392V32.1947H100.712L100.048 32.8178C100.048 31.5439 99.8538 30.4776 99.4661 29.6191C99.1061 28.7606 98.5661 28.1098 97.846 27.6667C97.1536 27.1959 96.2813 26.9605 95.2289 26.9605C94.0657 26.9605 93.0687 27.2374 92.2379 27.7913C91.4348 28.3175 90.8116 29.0791 90.3685 30.0761C89.9531 31.0454 89.7454 32.2085 89.7454 33.5655V33.8563C89.7454 36.1273 90.2716 37.8305 91.324 38.9659C92.4041 40.0737 93.9826 40.6276 96.0597 40.6276C96.7798 40.6276 97.5829 40.5445 98.4691 40.3783C99.383 40.1845 100.242 39.866 101.045 39.4229C101.626 39.0906 102.139 38.9521 102.582 39.0075C103.025 39.0352 103.371 39.1875 103.62 39.4644C103.897 39.7414 104.063 40.0876 104.119 40.503C104.174 40.8907 104.091 41.2923 103.87 41.7077C103.676 42.1231 103.329 42.4831 102.831 42.7878C101.862 43.397 100.74 43.854 99.4661 44.1586C98.2199 44.4356 97.0567 44.574 95.9766 44.574Z" fill="#1E2772"/>
<path d="M117.704 44.574C115.904 44.574 114.395 44.2694 113.176 43.6601C111.986 43.0509 111.099 42.1646 110.518 41.0015C109.936 39.8106 109.645 38.3428 109.645 36.5981V27.7497H107.485C106.821 27.7497 106.308 27.5836 105.948 27.2512C105.588 26.8912 105.408 26.4066 105.408 25.7973C105.408 25.1603 105.588 24.6757 105.948 24.3433C106.308 24.011 106.821 23.8448 107.485 23.8448H109.645V20.0646C109.645 19.206 109.867 18.5552 110.31 18.1121C110.781 17.669 111.432 17.4475 112.263 17.4475C113.093 17.4475 113.73 17.669 114.173 18.1121C114.617 18.5552 114.838 19.206 114.838 20.0646V23.8448H119.241C119.906 23.8448 120.418 24.011 120.779 24.3433C121.139 24.6757 121.319 25.1603 121.319 25.7973C121.319 26.4066 121.139 26.8912 120.779 27.2512C120.418 27.5836 119.906 27.7497 119.241 27.7497H114.838V36.3073C114.838 37.6366 115.129 38.6336 115.71 39.2983C116.292 39.9629 117.234 40.2953 118.535 40.2953C119.006 40.2953 119.422 40.2537 119.782 40.1706C120.142 40.0876 120.46 40.0322 120.737 40.0045C121.069 39.9768 121.346 40.0876 121.568 40.3368C121.789 40.5584 121.9 41.0292 121.9 41.7492C121.9 42.3031 121.803 42.8016 121.609 43.2447C121.443 43.6601 121.125 43.9509 120.654 44.1171C120.294 44.2279 119.823 44.3248 119.241 44.4079C118.66 44.5187 118.148 44.574 117.704 44.574Z" fill="#1E2772"/>
<path d="M132.518 44.491C131.826 44.491 131.23 44.3248 130.732 43.9925C130.233 43.6324 129.832 43.0785 129.527 42.3308L123.504 26.9605C123.254 26.2958 123.171 25.7142 123.254 25.2157C123.365 24.6895 123.628 24.2741 124.044 23.9695C124.459 23.6648 125.013 23.5125 125.705 23.5125C126.315 23.5125 126.813 23.6648 127.201 23.9695C127.589 24.2464 127.921 24.7864 128.198 25.5896L133.224 39.4229H132.269L137.462 25.2573C137.683 24.648 137.974 24.2049 138.334 23.9279C138.722 23.651 139.22 23.5125 139.83 23.5125C140.439 23.5125 140.937 23.6648 141.325 23.9695C141.713 24.2464 142.004 24.6757 142.197 25.2573L147.307 39.4229H146.435L151.503 25.465C151.78 24.7172 152.126 24.2049 152.541 23.9279C152.984 23.651 153.469 23.5125 153.995 23.5125C154.66 23.5125 155.172 23.6787 155.532 24.011C155.892 24.3433 156.1 24.7726 156.155 25.2988C156.211 25.7973 156.114 26.3512 155.865 26.9605L149.883 42.3308C149.606 43.0509 149.204 43.5909 148.678 43.9509C148.179 44.3109 147.584 44.491 146.892 44.491C146.199 44.491 145.59 44.3109 145.064 43.9509C144.565 43.5909 144.178 43.0509 143.901 42.3308L138.459 27.9159H140.827L135.509 42.2893C135.232 43.037 134.845 43.5909 134.346 43.9509C133.848 44.3109 133.238 44.491 132.518 44.491Z" fill="#1E2772"/>
<path d="M168.941 44.574C166.836 44.574 165.008 44.1448 163.457 43.2863C161.906 42.4277 160.702 41.2092 159.843 39.6306C158.985 38.0243 158.555 36.1411 158.555 33.981C158.555 32.347 158.791 30.893 159.261 29.6191C159.76 28.3175 160.466 27.2097 161.38 26.2958C162.294 25.3542 163.388 24.648 164.662 24.1772C165.936 23.6787 167.362 23.4294 168.941 23.4294C171.045 23.4294 172.873 23.8587 174.424 24.7172C175.975 25.5757 177.18 26.7943 178.038 28.3729C178.897 29.9514 179.326 31.8208 179.326 33.981C179.326 35.6149 179.077 37.0827 178.578 38.3844C178.107 39.686 177.415 40.8076 176.501 41.7492C175.587 42.6631 174.493 43.3693 173.219 43.8678C171.945 44.3386 170.519 44.574 168.941 44.574ZM168.941 40.6276C169.965 40.6276 170.865 40.3783 171.641 39.8799C172.416 39.3814 173.012 38.6475 173.427 37.6782C173.87 36.6812 174.092 35.4488 174.092 33.981C174.092 31.7654 173.621 30.1176 172.679 29.0375C171.738 27.9298 170.492 27.3759 168.941 27.3759C167.916 27.3759 167.016 27.6251 166.24 28.1236C165.465 28.5944 164.856 29.3283 164.413 30.3253C163.997 31.2946 163.79 32.5132 163.79 33.981C163.79 36.1688 164.26 37.8305 165.202 38.9659C166.144 40.0737 167.39 40.6276 168.941 40.6276Z" fill="#1E2772"/>
<path d="M186.271 44.491C185.412 44.491 184.747 44.2694 184.277 43.8263C183.834 43.3555 183.612 42.6908 183.612 41.8323V26.1296C183.612 25.2711 183.834 24.6203 184.277 24.1772C184.72 23.7341 185.343 23.5125 186.146 23.5125C186.949 23.5125 187.572 23.7341 188.015 24.1772C188.458 24.6203 188.68 25.2711 188.68 26.1296V28.7467H188.265C188.652 27.0851 189.414 25.825 190.549 24.9665C191.685 24.1079 193.194 23.5956 195.077 23.4294C195.659 23.374 196.116 23.5264 196.448 23.8864C196.808 24.2187 197.016 24.7449 197.071 25.465C197.127 26.1573 196.961 26.7251 196.573 27.1682C196.213 27.5836 195.659 27.8328 194.911 27.9159L193.997 27.999C192.308 28.1652 191.034 28.6913 190.175 29.5776C189.317 30.4361 188.888 31.6546 188.888 33.2332V41.8323C188.888 42.6908 188.666 43.3555 188.223 43.8263C187.78 44.2694 187.129 44.491 186.271 44.491Z" fill="#1E2772"/>
<path d="M202.455 44.491C201.624 44.491 200.987 44.2694 200.544 43.8263C200.101 43.3555 199.88 42.6908 199.88 41.8323V17.1567C199.88 16.2981 200.101 15.6473 200.544 15.2042C200.987 14.7611 201.624 14.5396 202.455 14.5396C203.286 14.5396 203.923 14.7611 204.366 15.2042C204.837 15.6473 205.072 16.2981 205.072 17.1567V32.4855H205.155L212.01 25.2573C212.564 24.7034 213.048 24.2741 213.464 23.9695C213.879 23.6648 214.447 23.5125 215.167 23.5125C215.887 23.5125 216.427 23.7064 216.787 24.0941C217.175 24.4541 217.369 24.8972 217.369 25.4234C217.369 25.9496 217.119 26.4758 216.621 27.002L209.393 34.6456V32.4855L217.327 41.043C217.826 41.5692 218.047 42.1092 217.992 42.6631C217.964 43.1893 217.742 43.6324 217.327 43.9925C216.912 44.3248 216.385 44.491 215.748 44.491C214.973 44.491 214.35 44.3386 213.879 44.034C213.436 43.7294 212.938 43.2724 212.384 42.6631L205.155 35.1026H205.072V41.8323C205.072 43.6047 204.2 44.491 202.455 44.491Z" fill="#1E2772"/>
</svg>
