<svg width="32" height="40" viewBox="0 0 32 40" fill="none" xmlns="http://www.w3.org/2000/svg">
<path d="M15.8846 9.81869C15.8591 9.81869 15.8336 9.81751 15.8079 9.81535C15.3172 9.77333 14.9535 9.34172 14.9953 8.8512C15.0344 8.39425 14.9837 8.04924 14.934 7.94124C14.8292 7.84109 14.7147 7.76333 14.5472 7.64963C14.2047 7.41733 13.7356 7.09902 13.0267 6.35931C11.9175 5.20174 11.9104 3.8957 11.923 3.61804C11.9365 1.6208 13.5656 0 15.5659 0C17.5748 0 19.2091 1.63435 19.2091 3.64318C19.2091 4.13547 18.8099 4.53468 18.3176 4.53468C17.8253 4.53468 17.4261 4.13547 17.4261 3.64318C17.4261 2.61756 16.5918 1.783 15.5659 1.783C14.5403 1.783 13.706 2.61756 13.706 3.64318C13.706 3.66478 13.7052 3.68638 13.7036 3.70778C13.7032 3.72565 13.68 4.46399 14.3141 5.12574C14.8924 5.72937 15.2408 5.9656 15.5481 6.17414C15.7633 6.32023 15.986 6.47124 16.2167 6.70197C16.7891 7.27457 16.8345 8.26917 16.772 9.00279C16.7322 9.46779 16.3426 9.81869 15.8846 9.81869Z" fill="url(#paint0_linear_27_3475)"/>
<path d="M15.5659 1.78324C16.5915 1.78324 17.4261 2.61779 17.4261 3.64341C17.4261 4.1357 17.8253 4.53492 18.3176 4.53492C18.7025 4.53492 19.0273 4.28985 19.1522 3.94817C19.1818 3.79854 19.1971 3.6442 19.2013 3.48671C19.1797 2.98362 19.0563 2.50763 18.8501 2.077C18.3822 1.25148 17.497 0.693604 16.4806 0.693604C15.0591 0.693604 13.8935 1.78265 13.769 3.17174C13.9783 2.3741 14.7035 1.78324 15.5659 1.78324Z" fill="url(#paint1_linear_27_3475)"/>
<path d="M8.82021 35.6365L8.28766 36.3279C6.94098 38.0771 4.43123 38.4033 2.6822 37.0562C1.54877 36.1837 0.620944 34.8229 0.750349 33.4971L0.698903 33.564C-0.647775 35.3133 0.0744584 37.8228 1.82369 39.1695C3.57272 40.5164 6.08247 40.1902 7.42915 38.4412L8.82001 36.6346V35.6365H8.82021Z" fill="url(#paint2_linear_27_3475)"/>
<path d="M16.4804 35.4751L15.8238 36.3279C14.4771 38.0771 11.9674 38.4033 10.2183 37.0562C9.0851 36.1837 8.35521 34.8229 8.48462 33.4971L8.43317 33.564C7.08649 35.3133 7.61079 37.8228 9.35982 39.1695C11.1089 40.5164 13.6186 40.1902 14.9653 38.4412L16.4804 36.4734V35.4751Z" fill="url(#paint3_linear_27_3475)"/>
<path d="M14.4392 29.4704H13.3602C13.3602 29.4704 12.3695 29.4461 11.8619 29.9533C11.3545 30.4605 8.43317 33.5644 8.43317 33.5644C7.08649 35.3137 7.61079 37.8232 9.35982 39.1699C9.44151 39.2327 9.52654 39.2883 9.61117 39.3441C8.7069 37.9609 8.72163 36.1036 9.78691 34.7201L14.4392 29.4704Z" fill="url(#paint4_linear_27_3475)"/>
<path d="M14.1588 21.6198H13.0798C13.0798 21.6198 11.891 21.5955 11.3834 22.1029C10.8758 22.6101 0.698719 33.5644 0.698719 33.5644C-0.647959 35.3136 0.0742775 37.8232 1.82351 39.1698C1.90519 39.2327 1.99022 39.2882 2.07485 39.344C1.17059 37.9608 1.18531 36.1036 2.2506 34.72L14.1588 21.6198Z" fill="url(#paint5_linear_27_3475)"/>
<path d="M24.0372 35.4751L23.3805 36.3279C22.0338 38.0771 19.5239 38.4033 17.7751 37.0562C16.6418 36.1837 15.9119 34.8229 16.0413 33.4971L15.9899 33.564C14.643 35.3133 15.1675 37.8228 16.9165 39.1695C18.6656 40.5164 21.1753 40.1902 22.522 38.4412L24.037 36.4734V35.4751H24.0372Z" fill="url(#paint6_linear_27_3475)"/>
<path d="M29.7544 37.3239C28.3883 38.1351 26.6108 38.085 25.2753 37.0564C24.1418 36.184 23.4121 34.8232 23.5416 33.4973L23.4901 33.5643C22.1434 35.3135 22.6675 37.8231 24.4168 39.1697C26.0554 40.4318 28.3623 40.2248 29.7544 38.7548V37.3239Z" fill="url(#paint7_linear_27_3475)"/>
<path d="M21.1031 30.6259H20.0241C20.0241 30.6259 19.0334 30.6014 18.5258 31.1088C18.0184 31.616 15.9897 33.5641 15.9897 33.5641C14.6428 35.3134 15.1673 37.8229 16.9164 39.1696C16.9981 39.2324 17.0829 39.288 17.1677 39.3438C16.2634 37.9606 16.2782 36.1034 17.3435 34.7198L21.1031 30.6259Z" fill="url(#paint8_linear_27_3475)"/>
<path d="M26.3203 32.7722H25.2413C25.2413 32.7722 24.2506 32.7476 23.743 33.255C23.2356 33.7626 23.0296 34.2734 22.8923 34.6567C22.3239 36.2453 23.0076 38.0848 24.4167 39.1696C24.4984 39.2326 24.5834 39.288 24.6681 39.3437C23.7638 37.9605 23.7785 36.1035 24.8438 34.7197L26.3203 32.7722Z" fill="url(#paint9_linear_27_3475)"/>
<path d="M23.1408 9.14795H8.1215C6.64326 9.14795 5.65377 9.54127 5.38298 10.3279C5.23747 10.7507 5.30168 11.1935 5.51592 11.6389H25.4587C26.3869 10.1987 25.5313 9.14795 23.1408 9.14795Z" fill="url(#paint10_linear_27_3475)"/>
<path d="M23.1408 9.14795H20.7797C21.3634 9.79714 21.9749 11.0619 20.7435 13.0154C20.7435 13.0154 17.5889 17.3971 16.5381 18.2654C17.1011 18.4135 17.648 18.592 18.4305 18.1998C18.8676 17.9809 19.2784 17.7066 19.6494 17.3771L24.4973 12.7181C26.7077 10.7544 26.0969 9.14795 23.1408 9.14795Z" fill="url(#paint11_linear_27_3475)"/>
<path d="M30.6296 33.5643L10.3868 13.0154C9.15537 11.0619 9.76705 9.79714 10.3505 9.14795H8.12131C6.64307 9.14795 5.65358 9.54127 5.38279 10.3279C5.07155 11.2326 5.71052 12.2287 6.75931 13.1465C6.75931 13.1465 13.9159 19.7494 16.0957 21.9292C18.2756 24.1091 28.8795 34.7201 28.8795 34.7201C29.9448 36.1035 29.9594 37.9607 29.0551 39.3441C29.1399 39.2884 29.2248 39.233 29.3064 39.1699C31.0559 37.8231 31.9762 35.3135 30.6296 33.5643Z" fill="url(#paint12_linear_27_3475)"/>
<defs>
<linearGradient id="paint0_linear_27_3475" x1="15.5649" y1="8.22202" x2="15.5649" y2="1.61778" gradientUnits="userSpaceOnUse">
<stop offset="0.000294" stop-color="#F22895"/>
<stop offset="1" stop-color="#FFA849"/>
</linearGradient>
<linearGradient id="paint1_linear_27_3475" x1="16.2558" y1="0.695548" x2="16.5859" y2="4.45961" gradientUnits="userSpaceOnUse">
<stop offset="0.000294" stop-color="#F22895"/>
<stop offset="1" stop-color="#FFA849"/>
</linearGradient>
<linearGradient id="paint2_linear_27_3475" x1="0.000193246" y1="36.7487" x2="8.82015" y2="36.7487" gradientUnits="userSpaceOnUse">
<stop stop-color="#FFD99B"/>
<stop offset="1" stop-color="#FF56B9"/>
</linearGradient>
<linearGradient id="paint3_linear_27_3475" x1="7.6728" y1="36.7487" x2="16.4805" y2="36.7487" gradientUnits="userSpaceOnUse">
<stop stop-color="#FFD99B"/>
<stop offset="1" stop-color="#FF56B9"/>
</linearGradient>
<linearGradient id="paint4_linear_27_3475" x1="11.056" y1="23.3781" x2="11.056" y2="36.2744" gradientUnits="userSpaceOnUse">
<stop offset="0.000294" stop-color="#F22895"/>
<stop offset="1" stop-color="#FFA849"/>
</linearGradient>
<linearGradient id="paint5_linear_27_3475" x1="7.07953" y1="23.7272" x2="7.07953" y2="36.3415" gradientUnits="userSpaceOnUse">
<stop offset="0.000294" stop-color="#F22895"/>
<stop offset="1" stop-color="#FFA849"/>
</linearGradient>
<linearGradient id="paint6_linear_27_3475" x1="15.2294" y1="36.7487" x2="24.0372" y2="36.7487" gradientUnits="userSpaceOnUse">
<stop stop-color="#FFD99B"/>
<stop offset="1" stop-color="#FF56B9"/>
</linearGradient>
<linearGradient id="paint7_linear_27_3475" x1="22.7297" y1="36.7486" x2="29.7544" y2="36.7486" gradientUnits="userSpaceOnUse">
<stop offset="0.0053" stop-color="#FFD99B"/>
<stop offset="1" stop-color="#FF56B9"/>
</linearGradient>
<linearGradient id="paint8_linear_27_3475" x1="18.1663" y1="23.378" x2="18.1663" y2="36.2743" gradientUnits="userSpaceOnUse">
<stop offset="0.000294" stop-color="#F22895"/>
<stop offset="1" stop-color="#FFA849"/>
</linearGradient>
<linearGradient id="paint9_linear_27_3475" x1="24.5063" y1="23.3779" x2="24.5063" y2="36.2742" gradientUnits="userSpaceOnUse">
<stop offset="0.000294" stop-color="#F22895"/>
<stop offset="1" stop-color="#FFA849"/>
</linearGradient>
<linearGradient id="paint10_linear_27_3475" x1="7.16889" y1="10.3934" x2="21.4588" y2="10.3934" gradientUnits="userSpaceOnUse">
<stop offset="0.000294" stop-color="#F22895"/>
<stop offset="1" stop-color="#FFA849"/>
</linearGradient>
<linearGradient id="paint11_linear_27_3475" x1="21.1823" y1="9.01452" x2="21.1823" y2="20.2121" gradientUnits="userSpaceOnUse">
<stop offset="0.000294" stop-color="#F22895"/>
<stop offset="1" stop-color="#FFA849"/>
</linearGradient>
<linearGradient id="paint12_linear_27_3475" x1="6.0319" y1="9.01835" x2="25.7345" y2="30.9643" gradientUnits="userSpaceOnUse">
<stop stop-color="#FFD99B"/>
<stop offset="1" stop-color="#FF56B9"/>
</linearGradient>
</defs>
</svg>
