<svg width="24" height="25" viewBox="0 0 24 25" fill="none" xmlns="http://www.w3.org/2000/svg">
<g clip-path="url(#clip0_3_218)">
<path d="M19 10.5427H20C20.2652 10.5427 20.5196 10.6481 20.7071 10.8356C20.8946 11.0232 21 11.2775 21 11.5427V21.5427C21 21.8079 20.8946 22.0623 20.7071 22.2498C20.5196 22.4374 20.2652 22.5427 20 22.5427H4C3.73478 22.5427 3.48043 22.4374 3.29289 22.2498C3.10536 22.0623 3 21.8079 3 21.5427V11.5427C3 11.2775 3.10536 11.0232 3.29289 10.8356C3.48043 10.6481 3.73478 10.5427 4 10.5427H5V9.54272C5 8.62347 5.18106 7.71322 5.53284 6.86394C5.88463 6.01466 6.40024 5.24299 7.05025 4.59298C7.70026 3.94297 8.47194 3.42735 9.32122 3.07557C10.1705 2.72378 11.0807 2.54272 12 2.54272C12.9193 2.54272 13.8295 2.72378 14.6788 3.07557C15.5281 3.42735 16.2997 3.94297 16.9497 4.59298C17.5998 5.24299 18.1154 6.01466 18.4672 6.86394C18.8189 7.71322 19 8.62347 19 9.54272V10.5427ZM5 12.5427V20.5427H19V12.5427H5ZM11 14.5427H13V18.5427H11V14.5427ZM17 10.5427V9.54272C17 8.21664 16.4732 6.94487 15.5355 6.00719C14.5979 5.06951 13.3261 4.54272 12 4.54272C10.6739 4.54272 9.40215 5.06951 8.46447 6.00719C7.52678 6.94487 7 8.21664 7 9.54272V10.5427H17Z" fill="white"/>
</g>
<defs>
<clipPath id="clip0_3_218">
<rect width="24" height="24" fill="white" transform="translate(0 0.542725)"/>
</clipPath>
</defs>
</svg>
