<svg width="24" height="25" viewBox="0 0 24 25" fill="none" xmlns="http://www.w3.org/2000/svg">
<g clip-path="url(#clip0_3_6)">
<path d="M3 3.54272H21C21.2652 3.54272 21.5196 3.64808 21.7071 3.83562C21.8946 4.02315 22 4.27751 22 4.54272V20.5427C22 20.8079 21.8946 21.0623 21.7071 21.2498C21.5196 21.4374 21.2652 21.5427 21 21.5427H3C2.73478 21.5427 2.48043 21.4374 2.29289 21.2498C2.10536 21.0623 2 20.8079 2 20.5427V4.54272C2 4.27751 2.10536 4.02315 2.29289 3.83562C2.48043 3.64808 2.73478 3.54272 3 3.54272ZM20 7.78072L12.072 14.8807L4 7.75872V19.5427H20V7.78072ZM4.511 5.54272L12.061 12.2047L19.502 5.54272H4.511Z" fill="white"/>
</g>
<defs>
<clipPath id="clip0_3_6">
<rect width="24" height="24" fill="white" transform="translate(0 0.542725)"/>
</clipPath>
</defs>
</svg>
